<svg viewBox="245 185 545 660" xmlns="http://www.w3.org/2000/svg" width="512" height="512">
  <path d="M335.04 686.52l336.7 126.35c45.59 17.11 94.22-16.59 94.22-65.28V288.67c0-44-35.67-79.67-79.67-79.67H348.7c-44 0-79.67 35.67-79.67 79.67v302.57c0 42.41 26.3 80.38 66.01 95.28z" fill="#4384F7"/>
  <path d="M699.96 686.52l-336.7 126.35c-45.59 17.11-94.22-16.59-94.22-65.28V288.67c0-44 35.67-79.67 79.67-79.67h337.61c44 0 79.67 35.67 79.67 79.67v302.57c0 42.41-26.3 80.38-66.01 95.28z" fill="#6CA4F4"/>
  <path d="M417.91 292m0 34.41l0 136.18q0 34.41-34.41 34.41l0.01 0q-34.41 0-34.41-34.41l0-136.18q0-34.41 34.41-34.41l-0.01 0q34.41 0 34.41 34.41Z" fill="#FFFFFF"/>
</svg>
